<?xml version="1.0" encoding="UTF-8"?>
<svg version="1.1" xmlns="http://www.w3.org/2000/svg" width="1024" height="1024">
<path d="M0 0 C337.92 0 675.84 0 1024 0 C1024 337.92 1024 675.84 1024 1024 C686.08 1024 348.16 1024 0 1024 C0 686.08 0 348.16 0 0 Z " fill="#58167D" transform="translate(0,0)"/>
<path d="M0 0 C2.44796345 -0.00345942 4.89592534 -0.00822589 7.34388399 -0.01418173 C12.65260793 -0.02407654 17.9612111 -0.02471408 23.26992989 -0.01704025 C31.16436112 -0.00565993 39.05871549 -0.01151103 46.95314626 -0.02066517 C61.05522743 -0.0364396 75.15726776 -0.03510232 89.25935279 -0.02642844 C101.60048293 -0.01887515 113.94159812 -0.01691475 126.2827301 -0.02049637 C127.10205351 -0.02072552 127.92137691 -0.02095468 128.7655283 -0.02119078 C132.09161484 -0.02212483 135.41770137 -0.02308003 138.7437879 -0.02407007 C169.93087651 -0.03324249 201.11793914 -0.02493395 232.30502374 -0.00877938 C259.99938358 0.00545693 287.69370204 0.00418302 315.38806152 -0.01016235 C346.5189202 -0.02623398 377.64975594 -0.03259193 408.78061819 -0.02332556 C412.10056654 -0.02236344 415.4205149 -0.02142492 418.74046326 -0.02049637 C419.55789049 -0.02025914 420.37531772 -0.0200219 421.21751547 -0.01977748 C433.54944065 -0.01636826 445.88134922 -0.02034993 458.21327209 -0.02793503 C472.23834458 -0.03651865 486.26336991 -0.03435584 500.28843653 -0.0180928 C508.13314905 -0.00929582 515.97775942 -0.00869168 523.82246924 -0.02003132 C529.68465958 -0.02756909 535.54676014 -0.01937019 541.40894026 -0.0051076 C543.77686797 -0.00176128 546.1448094 -0.00345046 548.51272827 -0.01073496 C569.42354432 -0.07012022 589.2244614 1.80076312 605.01159668 17.38095093 C618.30483118 32.47477404 623.49666349 49.45548158 623.4103241 69.33755493 C623.41697128 70.56595486 623.42361846 71.79435479 623.43046707 73.05997896 C623.44576762 76.4343935 623.4479567 79.8083323 623.44433811 83.18274683 C623.44370502 86.85476214 623.46040221 90.52670713 623.47483635 94.19868851 C623.49762153 100.59572634 623.50949243 106.99270994 623.51394844 113.38978577 C623.52052248 122.81143956 623.54382805 132.23299897 623.57056441 141.65461445 C623.61712848 158.25769594 623.64699807 174.86077441 623.66961249 191.4639039 C623.68927184 205.8443504 623.71518309 220.22476962 623.74713135 234.60519409 C623.74923221 235.55445984 623.75133307 236.50372558 623.7534976 237.48175696 C623.76200218 241.32175649 623.77052922 245.16175597 623.77909178 249.00175537 C623.87645311 292.74906695 623.94222454 336.49639788 623.99544328 380.24378304 C624.0077434 390.35387275 624.02084897 400.46396113 624.03446762 410.57404914 C624.08346001 447.01130223 624.11997919 483.44853218 624.13364029 519.88581848 C624.13549727 524.72990459 624.13789134 529.57398996 624.14077377 534.41807556 C624.14879947 548.0094104 624.15198886 561.60072607 624.14610481 575.19206238 C624.14450629 579.21333671 624.14508713 583.23460088 624.14770317 587.25587463 C624.15054574 591.81185455 624.1487167 596.36780683 624.14295447 600.92378378 C624.1416641 602.56124754 624.14205312 604.19871363 624.14427221 605.8361764 C624.14699316 608.04667045 624.14359186 610.25707175 624.13858032 612.46755981 C624.1382033 613.6918507 624.13782627 614.91614159 624.13743782 616.1775322 C624.02449123 619.05270663 623.64056983 621.58354839 623.01159668 624.38095093 C622.86722168 625.65970093 622.72284668 626.93845093 622.57409668 628.25595093 C621.81091459 634.50230278 619.95650367 639.83093391 617.01159668 645.38095093 C616.75894043 645.96360718 616.50628418 646.54626343 616.24597168 647.14657593 C612.93948264 654.54108778 607.60206828 663.04114342 600.01159668 666.38095093 C598.74262529 667.31401812 597.49302183 668.27386393 596.26159668 669.25595093 C590.12313573 673.91389254 584.77759241 676.64830982 577.01159668 677.38095093 C574.73685863 677.80415801 572.52145436 678.22405692 570.31018788 678.90451044 C567.15419707 679.55866843 564.14509354 679.50495365 560.92163754 679.50399876 C560.20373888 679.5051526 559.48584022 679.50630645 558.74618706 679.50749525 C556.32811835 679.51015304 553.91011552 679.5056466 551.49205017 679.50120544 C549.74594531 679.50164132 547.99984052 679.50251653 546.25373608 679.50379461 C541.44569128 679.50603644 536.63766865 679.50202249 531.82962668 679.49701655 C526.64826877 679.49270769 521.46691217 679.49415879 516.28555298 679.49491882 C507.30453125 679.49544381 498.32351678 679.49229957 489.34249687 679.48668098 C476.35410081 679.4785608 463.36570825 679.4759502 450.37730993 679.47469299 C429.30138334 679.47250294 408.22546062 679.46584447 387.14953613 679.45639038 C366.68078633 679.44721821 346.21203757 679.4401361 325.74328613 679.43588257 C324.48253411 679.43561984 323.22178208 679.43535712 321.92282545 679.43508644 C315.59771923 679.43378135 309.27261301 679.43251761 302.94750679 679.43127453 C254.11547547 679.42162851 205.28344772 679.40605217 156.45141977 679.38561302 C155.69088231 679.38529592 154.93034484 679.38497882 154.14676079 679.38465211 C152.12846648 679.38380812 150.11017218 679.38295522 148.09187788 679.3821016 C146.06511758 679.38134448 144.03835712 679.38095093 142.01159668 679.38095093 C141.68159668 679.05095093 141.35159668 678.72095093 141.01159668 678.38095093 C141.01159668 678.71095093 141.01159668 679.04095093 141.01159668 679.38095093 C128.47159668 679.38095093 115.93159668 679.38095093 103.01159668 679.38095093 C103.01159668 678.72095093 103.01159668 678.06095093 103.01159668 677.38095093 C101.69159668 677.38095093 100.37159668 677.38095093 99.01159668 677.38095093 C99.01159668 678.04095093 99.01159668 678.70095093 99.01159668 679.38095093 C88.58567561 679.43934128 78.19125753 679.29742286 67.77084351 678.95370483 C53.92258601 678.50775319 40.08126699 678.33929839 26.22644043 678.34970093 C25.49669132 678.3502095 24.76694221 678.35071808 24.0150795 678.35124207 C16.6212574 678.35791343 9.22752907 678.37606032 1.83377743 678.40900421 C-0.96498509 678.42074863 -3.76375204 678.42881918 -6.56252861 678.43638611 C-8.50659292 678.44327995 -10.45063414 678.45592658 -12.39466858 678.46871948 C-13.57101364 678.47198242 -14.7473587 678.47524536 -15.95935059 678.47860718 C-16.98311295 678.48384399 -18.00687531 678.48908081 -19.06166077 678.49447632 C-24.17932424 678.29596732 -28.94807854 677.19713958 -33.86340332 675.81845093 C-35.31359863 675.41432983 -35.31359863 675.41432983 -36.79309082 675.00204468 C-37.51754395 674.79708374 -38.24199707 674.5921228 -38.98840332 674.38095093 C-38.98840332 673.72095093 -38.98840332 673.06095093 -38.98840332 672.38095093 C-39.54527832 672.3061853 -40.10215332 672.23141968 -40.67590332 672.15438843 C-47.15255719 671.03847847 -51.03529153 668.58582668 -55.98840332 664.38095093 C-56.99902832 663.63845093 -58.00965332 662.89595093 -59.05090332 662.13095093 C-64.99556226 657.09585729 -69.53884476 649.72962661 -71.98840332 642.38095093 C-71.65840332 641.72095093 -71.32840332 641.06095093 -70.98840332 640.38095093 C-71.64840332 640.05095093 -72.30840332 639.72095093 -72.98840332 639.38095093 C-74.6089866 634.80518638 -75.31555668 630.41680888 -75.74230957 625.59188843 C-75.93838626 623.3909161 -75.93838626 623.3909161 -76.49539536 621.32991487 C-77.18481945 617.20607315 -77.12959251 613.16075226 -77.1226244 608.98659039 C-77.12497663 608.03168358 -77.12732886 607.07677677 -77.12975237 606.09293339 C-77.13644013 602.87453072 -77.13598421 599.65616844 -77.13557434 596.4377594 C-77.13887311 594.11433437 -77.14259871 591.79090992 -77.14671582 589.4674862 C-77.1556902 583.73949543 -77.15996326 578.01151446 -77.16223479 572.28351742 C-77.16519786 565.42299698 -77.17389599 558.56248678 -77.18264907 551.70197172 C-77.20349187 535.11784412 -77.21396363 518.53371473 -77.22277867 501.94957708 C-77.22698606 494.10196554 -77.23220798 486.25435477 -77.2374632 478.40674388 C-77.25535468 451.53740828 -77.27034951 424.66807247 -77.27778339 397.7987318 C-77.27825815 396.11186336 -77.27873404 394.42499492 -77.27921106 392.73812648 C-77.27944743 391.90159876 -77.27968381 391.06507105 -77.27992735 390.20319401 C-77.28112853 385.96500165 -77.28234399 381.7268093 -77.28356934 377.48861694 C-77.28380949 376.6475374 -77.28404964 375.80645785 -77.28429706 374.93989105 C-77.29218669 347.68159958 -77.31561091 320.42335168 -77.34812528 293.16507923 C-77.38244698 264.33892953 -77.40213678 235.51280531 -77.40542763 206.68663484 C-77.40584516 203.52013257 -77.40632472 200.35363032 -77.40685081 197.18712807 C-77.40697401 196.40745932 -77.4070972 195.62779056 -77.40722412 194.82449549 C-77.40955341 182.29282683 -77.42519838 169.76120887 -77.44569266 157.22955826 C-77.46597984 144.62418136 -77.47141433 132.01886514 -77.46192203 119.41347494 C-77.45717483 112.58827012 -77.45927047 105.76323914 -77.47868347 98.93805504 C-77.49631944 92.68351106 -77.49531344 86.42925088 -77.47978618 80.17470387 C-77.4774108 77.91818713 -77.48172991 75.66165072 -77.49361483 73.40516403 C-77.59341277 53.19729021 -75.60795985 33.68490136 -60.98840332 18.21688843 C-42.80894882 1.5287173 -23.48693258 -0.07225355 0 0 Z " fill="#712792" transform="translate(238.9884033203125,172.61904907226563)"/>
<path d="M0 0 C2.44624192 2.16582807 4.80658387 4.39432084 7.15234375 6.66796875 C7.75175781 7.19390625 8.35117187 7.71984375 8.96875 8.26171875 C25.33140347 23.14376088 34.26718798 46.82298007 35.49609375 68.5 C36.2133216 91.26388637 29.84618944 111.32875291 18.15234375 130.66796875 C17.15207944 132.3344768 16.15202927 134.00111343 15.15234375 135.66796875 C22.81872435 149.50902336 30.50334953 163.33811704 38.30761719 177.10205078 C41.08167162 181.9967946 43.84322047 186.89793345 46.58203125 191.8125 C52.38244405 202.22019503 58.23970113 212.5832352 64.27734375 222.85546875 C69.26204934 231.33907416 74.06382782 239.90094952 78.73681641 248.55981445 C82.75099924 255.98382933 86.9123958 263.31640168 91.14501953 270.61791992 C99.15234375 284.4876012 99.15234375 284.4876012 99.15234375 287.66796875 C99.80976562 287.52359375 100.4671875 287.37921875 101.14453125 287.23046875 C125.42278723 282.49324807 150.33960779 286.8296627 171.41015625 299.8203125 C193.70927843 314.84521961 208.56706036 336.66294693 213.8359375 363.09765625 C217.9008084 388.27182226 212.76054048 414.52563987 198.10546875 435.61328125 C196.19201606 438.03847129 194.20268428 440.35819737 192.15234375 442.66796875 C191.62382813 443.33828125 191.0953125 444.00859375 190.55078125 444.69921875 C177.60841598 460.76560322 156.88111748 470.50470972 136.9296875 474.27734375 C110.0070668 477.0614824 84.85996286 472.47957594 63.15234375 455.66796875 C45.78155868 441.44454184 31.98583371 422.33588845 29.15234375 399.66796875 C-29.25765625 399.66796875 -87.66765625 399.66796875 -147.84765625 399.66796875 C-148.83765625 403.95796875 -149.82765625 408.24796875 -150.84765625 412.66796875 C-152.04272323 415.57282239 -153.18804273 418.18439949 -154.66015625 420.91796875 C-155.01343994 421.5948877 -155.36672363 422.27180664 -155.73071289 422.96923828 C-160.68616351 432.32342298 -166.58827152 439.95809028 -173.84765625 447.66796875 C-174.3890625 448.28542969 -174.93046875 448.90289063 -175.48828125 449.5390625 C-189.62809891 465.00002474 -213.31531145 474.02026996 -233.8828125 475.046875 C-261.41479564 475.83086782 -284.89820807 467.70899859 -305.56640625 449.23828125 C-323.6735882 432.09749384 -333.5947852 409.03905758 -335.05078125 384.203125 C-335.42656563 356.36376546 -325.08449578 331.67551163 -306.03515625 311.41796875 C-288.25339601 294.49144347 -264.05040081 285.13672386 -239.60546875 285.46484375 C-232.97226829 285.82339513 -226.41785103 286.71230406 -219.84765625 287.66796875 C-219.56567383 286.93489502 -219.28369141 286.20182129 -218.99316406 285.4465332 C-217.95687246 282.93288556 -216.81536368 280.59828346 -215.51953125 278.2109375 C-215.05708008 277.35878662 -214.59462891 276.50663574 -214.11816406 275.62866211 C-213.3655127 274.2559314 -213.3655127 274.2559314 -212.59765625 272.85546875 C-212.0675293 271.88552979 -211.53740234 270.91559082 -210.99121094 269.91625977 C-206.58354239 261.90214173 -201.98429628 254.00941941 -197.3449707 246.12792969 C-192.69195188 238.19121082 -188.21097446 230.17009615 -183.78515625 222.10546875 C-183.44780457 221.49077728 -183.11045288 220.87608582 -182.76287842 220.24276733 C-182.25836151 219.32341904 -182.25836151 219.32341904 -181.74365234 218.38549805 C-181.07135715 217.16060716 -180.3989944 215.93575335 -179.7265625 214.7109375 C-179.39742859 214.11141769 -179.06829468 213.51189789 -178.72918701 212.89421082 C-175.0888646 206.27276532 -171.36806594 199.69772443 -167.63818359 193.12646484 C-164.29020119 187.22645886 -160.97102833 181.31131137 -157.66894531 175.38549805 C-150.23203006 162.04467964 -142.593768 148.83137731 -134.84765625 135.66796875 C-137.04022913 131.79457983 -139.26962913 127.98504305 -141.66015625 124.23046875 C-154.67324797 102.43188872 -159.14426947 76.45222903 -153.28515625 51.48046875 C-147.04517594 27.90752887 -133.05554305 8.24473316 -112.84765625 -5.33203125 C-111.92597656 -5.95851563 -111.00429688 -6.585 -110.0546875 -7.23046875 C-101.56659938 -12.5925989 -92.43753697 -15.59173045 -82.84765625 -18.33203125 C-81.91566406 -18.60144531 -80.98367188 -18.87085938 -80.0234375 -19.1484375 C-52.44126808 -25.49988714 -21.64711769 -17.72747498 0 0 Z " fill="#FEFEFE" transform="translate(571.84765625,266.33203125)"/>
<path d="M0 0 C1.155 0.391875 2.31 0.78375 3.5 1.1875 C8.05196807 2.69999813 12.61570283 4.17372753 17.1875 5.625 C17.86425781 5.84309326 18.54101562 6.06118652 19.23828125 6.28588867 C41.04023121 13.16044961 63.30431803 7.91456155 84 0 C84.2902002 0.5355249 84.58040039 1.0710498 84.87939453 1.62280273 C95.87963919 21.90276293 107.05840676 42.06861617 118.74072266 61.96459961 C123.00175448 69.23913909 127.14803259 76.57223668 131.25 83.9375 C135.4456575 91.46900674 139.68939633 98.96076542 144.0871582 106.37597656 C147.73806594 112.53571703 151.3359593 118.72575822 154.91873169 124.92532349 C155.91513186 126.64880954 156.91347645 128.37117101 157.91186523 130.09350586 C158.52747314 131.15964111 159.14308105 132.22577637 159.77734375 133.32421875 C160.32640381 134.27385498 160.87546387 135.22349121 161.44116211 136.2019043 C163.05221923 139.0937329 164.54139472 142.02876702 166 145 C165.39414062 145.51046875 164.78828125 146.0209375 164.1640625 146.546875 C154.75865372 154.70787585 147.10068971 163.36741928 141.1875 174.3125 C140.83872803 174.95058594 140.48995605 175.58867188 140.13061523 176.24609375 C136.4869552 183.32689058 134.59451401 190.21645796 132 198 C72.93 198 13.86 198 -47 198 C-48.98 192.72 -50.96 187.44 -53 182 C-54.38306577 179.11076836 -55.70505725 176.42350073 -57.3125 173.6875 C-57.69220947 173.02999756 -58.07191895 172.37249512 -58.46313477 171.69506836 C-64.45757998 161.58167994 -72.0496925 153.56758776 -81 146 C-80.3164414 142.45113503 -78.8681737 139.69292145 -77.11328125 136.546875 C-76.51193359 135.46535156 -75.91058594 134.38382813 -75.29101562 133.26953125 C-74.63174981 132.09621962 -73.9722381 130.92304613 -73.3125 129.75 C-72.63071325 128.53002957 -71.94907468 127.30997631 -71.26757812 126.08984375 C-66.37502839 117.35201067 -61.35000894 108.69525196 -56.27270508 100.06347656 C-51.89897927 92.60490363 -47.67699304 85.07026162 -43.5 77.5 C-38.77368789 68.93416836 -33.96051848 60.43239103 -29 52 C-23.90504887 43.33386889 -18.93831958 34.60321121 -14.0625 25.8125 C-13.45986328 24.72646484 -12.85722656 23.64042969 -12.23632812 22.52148438 C-8.10152834 15.04404468 -4.03686989 7.53062522 0 0 Z " fill="#67268E" transform="translate(470,426)"/>
<path d="M0 0 C12.24666612 8.47712492 19.52829951 21.53779067 22.75390625 35.90625 C23.81447028 53.13606886 21.00597673 67.74084388 9.44140625 81.09375 C0.02491697 91.13178973 -11.66560927 98.52778815 -25.7265625 99.2421875 C-43.27110438 99.57652758 -57.01866018 95.37991823 -69.95703125 83.22265625 C-81.4077394 71.6351649 -85.66442816 57.89811376 -85.61181641 41.8972168 C-85.34546528 27.86735429 -79.69714863 16.05875704 -70.20703125 5.78125 C-50.58917715 -12.97685751 -22.37273018 -13.76783395 0 0 Z " fill="#72238F" transform="translate(543.24609375,296.09375)"/>
<path d="M0 0 C1.0725 0.763125 2.145 1.52625 3.25 2.3125 C9.1962972 8.12365408 13.80252768 15.33198768 17 23 C17.2990625 23.68835938 17.598125 24.37671875 17.90625 25.0859375 C22.45526321 37.42724186 21.08652895 52.10534769 16 64 C9.61660989 77.57126227 0.02097524 87.27545981 -14 93 C-14.99580078 93.44666016 -14.99580078 93.44666016 -16.01171875 93.90234375 C-27.11810861 98.10842857 -42.32227982 97.72937889 -53.265625 93.32421875 C-69.14516442 85.63398466 -78.96479944 76.09743316 -85.1875 59.42578125 C-89.94956135 45.20828079 -88.63982723 31.62828704 -82.5 18 C-75.87859816 5.60110047 -66.52562519 -2.11339876 -54 -8 C-52.80697266 -8.57041016 -52.80697266 -8.57041016 -51.58984375 -9.15234375 C-34.30912374 -15.76595264 -14.31520178 -10.36373286 0 0 Z " fill="#752C9A" transform="translate(726,604)"/>
<path d="M0 0 C0.79277344 0.00491455 1.58554687 0.0098291 2.40234375 0.01489258 C8.71991568 0.14049683 14.33993017 0.9768404 20.25 3.3125 C21.08660156 3.64121094 21.92320312 3.96992187 22.78515625 4.30859375 C29.71586625 7.4043823 34.91266474 11.98443095 40.25 17.3125 C40.8275 17.87839844 41.405 18.44429687 42 19.02734375 C52.65281114 30.37369728 54.8449878 44.24514954 54.5625 59.125 C53.97880596 72.64724516 46.95255832 85.05359743 37.25 94.3125 C23.35511586 105.91170763 8.76788123 108.55436168 -8.75 107.3125 C-17.92706069 105.75483939 -25.2972923 101.76423955 -32.75 96.3125 C-33.73613281 95.60287109 -33.73613281 95.60287109 -34.7421875 94.87890625 C-44.19492584 87.46375818 -51.05632789 75.18531254 -52.75 63.3125 C-53.98537821 45.68878585 -50.74964861 31.7907949 -39.63671875 17.6171875 C-29.64830064 6.63832121 -14.8251075 -0.10891529 0 0 Z " fill="#572285" transform="translate(330.75,592.6875)"/>
<path d="M0 0 C3.37924189 5.06886284 2.32728923 11.04881414 2.3125 17 C2.32861328 18.29679688 2.34472656 19.59359375 2.36132812 20.9296875 C2.36197266 22.16976562 2.36261719 23.40984375 2.36328125 24.6875 C2.36626221 25.82574219 2.36924316 26.96398437 2.37231445 28.13671875 C2 31 2 31 -1 34 C-0.67 22.78 -0.34 11.56 0 0 Z " fill="#8028A4" transform="translate(861,761)"/>
<path d="M0 0 C0.99 0 1.98 0 3 0 C1.35491967 3.49999233 -0.671842 6.67930267 -2.75 9.9375 C-6.7934423 16.37269406 -9.98346136 23.01854124 -13 30 C-14.18185615 26.45443154 -13.80951792 25.98204438 -12.25 22.75 C-11.68925781 21.56470703 -11.68925781 21.56470703 -11.1171875 20.35546875 C-10.56417969 19.18951172 -10.56417969 19.18951172 -10 18 C-9.45231616 16.68999945 -8.9099279 15.37776087 -8.375 14.0625 C-7 11 -7 11 -5 9 C-5.33 8.34 -5.66 7.68 -6 7 C-5.071875 6.6596875 -5.071875 6.6596875 -4.125 6.3125 C-1.38589791 4.62070165 -0.94975528 3.00755839 0 0 Z " fill="#37106C" transform="translate(256,585)"/>
<path d="M0 0 C0.33 0.99 0.66 1.98 1 3 C-0.70342586 4.90044131 -2.41247117 6.79528874 -4.125 8.6875 C-4.599375 9.21794922 -5.07375 9.74839844 -5.5625 10.29492188 C-8.81499131 13.87705758 -12.22047225 16.97749932 -16 20 C-16.66 19.67 -17.32 19.34 -18 19 C-17.5968457 18.60208252 -17.19369141 18.20416504 -16.77832031 17.79418945 C-14.93285523 15.96965943 -13.09140987 14.1411223 -11.25 12.3125 C-10.61578125 11.68666016 -9.9815625 11.06082031 -9.328125 10.41601562 C-5.98710761 7.09239937 -2.8517269 3.76629589 0 0 Z " fill="#4A197D" transform="translate(408,702)"/>
<path d="M0 0 C4.46797338 1.39878802 8.63822079 3.13630772 12.875 5.125 C14.60363281 5.93324219 14.60363281 5.93324219 16.3671875 6.7578125 C17.23601562 7.16773438 18.10484375 7.57765625 19 8 C14.5496677 9.4639251 12.18268058 7.94195884 8 6 C6.67723944 5.62691369 5.34767923 5.26953585 4 5 C4 4.34 4 3.68 4 3 C2.68 2.34 1.36 1.68 0 1 C0 0.67 0 0.34 0 0 Z " fill="#401876" transform="translate(282,728)"/>
<path d="M0 0 C1 2 1 2 0.25 5.0625 C-0.1625 6.031875 -0.575 7.00125 -1 8 C-1.99 8.33 -2.98 8.66 -4 9 C-5.02281518 11.09719872 -5.02281518 11.09719872 -5.6875 13.5625 C-5.93886719 14.38878906 -6.19023437 15.21507812 -6.44921875 16.06640625 C-6.63097656 16.70449219 -6.81273437 17.34257813 -7 18 C-7.66 18 -8.32 18 -9 18 C-8.09476787 13.7997229 -6.09717906 10.42033539 -3.9375 6.75 C-3.56044922 6.1003125 -3.18339844 5.450625 -2.79492188 4.78125 C-1.86765885 3.18494909 -0.93441544 1.59212471 0 0 Z " fill="#471576" transform="translate(398,554)"/>
<path d="M0 0 C0.928125 0.20625 1.85625 0.4125 2.8125 0.625 C-0.87817522 2.63552129 -4.78181086 3.96936173 -8.75 5.3125 C-9.42224609 5.55033203 -10.09449219 5.78816406 -10.78710938 6.03320312 C-15.8348984 7.74253387 -15.8348984 7.74253387 -19.1875 6.625 C-17.8675 6.295 -16.5475 5.965 -15.1875 5.625 C-15.1875 4.965 -15.1875 4.305 -15.1875 3.625 C-14.57261719 3.50382813 -13.95773437 3.38265625 -13.32421875 3.2578125 C-12.51597656 3.09023438 -11.70773437 2.92265625 -10.875 2.75 C-10.07449219 2.58757813 -9.27398437 2.42515625 -8.44921875 2.2578125 C-0.2672546 -0.03144172 -0.2672546 -0.03144172 0 0 Z " fill="#3B106E" transform="translate(311.1875,552.375)"/>
<path d="M0 0 C0.33 0.66 0.66 1.32 1 2 C0.00390625 4.1640625 0.00390625 4.1640625 -1.4375 6.625 C-1.91058594 7.44226563 -2.38367188 8.25953125 -2.87109375 9.1015625 C-3.24363281 9.72804688 -3.61617188 10.35453125 -4 11 C-7.3 10.67 -10.6 10.34 -14 10 C-14 9.67 -14 9.34 -14 9 C-7.25 8.875 -7.25 8.875 -5 10 C-4.731875 8.72125 -4.46375 7.4425 -4.1875 6.125 C-3.42809901 2.50324145 -3.29922197 2.19948132 0 0 Z " fill="#431573" transform="translate(356,543)"/>
<path d="M0 0 C0.58203125 1.84375 0.58203125 1.84375 1 4 C-0.3125 6.5 -0.3125 6.5 -2 9 C-2.350625 9.70125 -2.70125 10.4025 -3.0625 11.125 C-4 13 -4 13 -6 16 C-6.66 16 -7.32 16 -8 16 C-6.42986223 10.03347646 -3.24970218 5.17090975 0 0 Z " fill="#481678" transform="translate(407,538)"/>
<path d="M0 0 C1 3 1 3 0 6 C-0.66 6 -1.32 6 -2 6 C-2.103125 6.763125 -2.20625 7.52625 -2.3125 8.3125 C-3.04364039 11.17059424 -3.76951913 12.15742885 -6 14 C-6.33 13.34 -6.66 12.68 -7 12 C-5.56640625 9.1796875 -5.56640625 9.1796875 -3.5625 5.875 C-2.57443359 4.23144531 -2.57443359 4.23144531 -1.56640625 2.5546875 C-1.04949219 1.71164062 -0.53257812 0.86859375 0 0 Z " fill="#50147B" transform="translate(439,482)"/>
<path d="M0 0 C2.92090003 1.30936898 4.75619462 2.75619462 7 5 C7.99 5.33 8.98 5.66 10 6 C11.75 8.9375 11.75 8.9375 13 12 C12.67 12.66 12.34 13.32 12 14 C9.99699451 11.85690336 7.99750256 9.71071503 6 7.5625 C5.42765625 6.95083984 4.8553125 6.33917969 4.265625 5.70898438 C0 1.11328125 0 1.11328125 0 0 Z " fill="#421074" transform="translate(394,575)"/>
<path d="M0 0 C0.93423645 3.01031744 1.04449911 3.86650268 0 7 C0.66 7.33 1.32 7.66 2 8 C1.34 8 0.68 8 0 8 C-0.268125 8.598125 -0.53625 9.19625 -0.8125 9.8125 C-1.99086308 11.98316883 -3.23060981 13.30817212 -5 15 C-3.33333333 10 -1.66666667 5 0 0 Z " fill="#47147A" transform="translate(422,673)"/>
<path d="M0 0 C0.99 0 1.98 0 3 0 C1.61735163 2.86867231 0.07851447 5.56024032 -1.625 8.25 C-2.07101563 8.95640625 -2.51703125 9.6628125 -2.9765625 10.390625 C-3.48316406 11.18726563 -3.48316406 11.18726563 -4 12 C-4.99 11.34 -5.98 10.68 -7 10 C-6.34 9.67 -5.68 9.34 -5 9 C-5.33 8.34 -5.66 7.68 -6 7 C-5.071875 6.6596875 -5.071875 6.6596875 -4.125 6.3125 C-1.38589791 4.62070165 -0.94975528 3.00755839 0 0 Z " fill="#4B1D7A" transform="translate(256,585)"/>
<path d="M0 0 C0.33 0.66 0.66 1.32 1 2 C1.66 2.33 2.32 2.66 3 3 C1.68 3.33 0.36 3.66 -1 4 C-1.061875 4.721875 -1.12375 5.44375 -1.1875 6.1875 C-2.24456647 9.84657625 -4.20550071 11.49211602 -7 14 C-5.23570801 9.02790438 -2.6060834 4.56561939 0 0 Z " fill="#4D1679" transform="translate(419,517)"/>
<path d="M0 0 C3.0916909 2.52956528 3.90931332 5.22454612 5 9 C5.99 9 6.98 9 8 9 C7.67 9.99 7.34 10.98 7 12 C6.34 12 5.68 12 5 12 C4.16180842 10.37750059 3.3295884 8.75191503 2.5 7.125 C2.0359375 6.22007812 1.571875 5.31515625 1.09375 4.3828125 C0 2 0 2 0 0 Z " fill="#441275" transform="translate(414,600)"/>
<path d="M0 0 C0.66 0.33 1.32 0.66 2 1 C0.79157144 5.43090471 -0.51668565 7.98112756 -4 11 C-3.39301257 6.87248551 -1.96189209 3.6678852 0 0 Z " fill="#842AA6" transform="translate(854,816)"/>
<path d="M0 0 C-3.96 1.98 -3.96 1.98 -8 4 C-8.66 3.01 -9.32 2.02 -10 1 C-3.375 -1.125 -3.375 -1.125 0 0 Z " fill="#451779" transform="translate(361,738)"/>
<path d="M0 0 C3.93673644 1.31224548 6.22719294 2.91910327 9 6 C2.35384615 4.52307692 2.35384615 4.52307692 0.5625 1.875 C0.376875 1.25625 0.19125 0.6375 0 0 Z " fill="#3D1172" transform="translate(273,722)"/>
<path d="M0 0 C0.88492145 2.47778006 1.11637742 3.66056586 0.25 6.1875 C-1 8 -1 8 -4 9 C-2.94124926 5.59687262 -1.99097846 2.98646769 0 0 Z " fill="#4F147B" transform="translate(457,450)"/>
<path d="M0 0 C0 3.99904969 -1.72586967 5.80200422 -4 9 C-5 7 -5 7 -4.25 4.5 C-3 2 -3 2 0 0 Z " fill="#5F147E" transform="translate(436,280)"/>
</svg>
